<svg xmlns="http://www.w3.org/2000/svg" width="1024" height="1024" viewBox="0 0 1024 1024"><path d="M440 770L441 781.7L443.8 793.1L448.5 803.9L454.9 813.8L462.8 822.6L472 829.9L482.3 835.6L493.4 839.5L504.9 841.7L512 842L519.1 841.7L530.6 839.5L541.7 835.6L552 829.9L561.2 822.6L569.1 813.8L575.5 803.9L579.4 795.4L581.5 788.6L583 781.7L584 772.4L584 570.8L764.9 313.4L768.7 307.4L771.9 301.1L775.7 290L777.7 278.4L777.8 266.6L776 255L774 248.2L771.3 241.7L765.5 231.5L758.1 222.3L749.3 214.5L739.4 208.2L728.5 203.6L717.1 200.9L705.3 200L696 200.7L684.5 203.3L673.6 207.7L665.5 212.5L656.3 219.9L651.4 225L647.1 230.6L512 422.8L376.9 230.6L369.4 221.6L360.5 213.9L352.5 208.8L346.2 205.7L339.5 203.3L332.7 201.5L325.7 200.4L318.7 200L311.6 200.3L302.3 201.7L295.5 203.6L288.9 206.1L280.5 210.5L274.7 214.5L269.3 219L264.3 224L258.5 231.5L254.8 237.5L251.7 243.8L248.6 252.7L246.7 262L246 271.3L246.5 280.7L248.3 290L251.2 298.9L255.3 307.4L259.1 313.4L440 570.8Z" fill="#FFFFFF"/></svg>
